<?xml version="1.0" encoding="UTF-8" standalone="no"?><svg xmlns="http://www.w3.org/2000/svg" xmlns:xlink="http://www.w3.org/1999/xlink" contentScriptType="text/ecmascript" fill="#000000" width="115.4" zoomAndPan="magnify" contentStyleType="text/css" viewBox="154.9 117.3 115.4 190.6" height="190.6" preserveAspectRatio="xMidYMid meet" version="1.1">
 <g id="surface1">
  <g id="change1_1"><path fill="#ffebdb" d="m237.28 295.27c0 5.87-11.04 10.63-24.65 10.63s-24.65-4.76-24.65-10.63c0-5.88 11.04-10.64 24.65-10.64s24.65 4.76 24.65 10.64"/></g>
  <path stroke-linecap="round" transform="matrix(.1 0 0 -.1 0 425.2)" fill="none" stroke-linejoin="round" d="m2372.8 1299.3c0-58.7-110.4-106.3-246.5-106.3s-246.5 47.6-246.5 106.3c0 58.8 110.4 106.4 246.5 106.4s246.5-47.6 246.5-106.4zm0 0" stroke="#040200" stroke-width="40" stroke-miterlimit="10"/>
  <g id="change1_2"><path fill="#ffebdb" d="m213.58 119.3c-0.33 0-0.65 0.02-0.98 0.02s-0.65-0.02-0.98-0.02c-30.23 0-54.74 25.55-54.74 57.08 0 5.37 2.08 17.81 5.21 22.97l50.51 95.92 50.51-95.92c3.13-5.16 5.21-17.6 5.21-22.97 0-31.53-24.5-57.08-54.74-57.08"/></g>
  <path stroke-linecap="round" transform="matrix(.1 0 0 -.1 0 425.2)" fill="none" stroke-linejoin="round" d="m2135.8 3059c-3.3 0-6.5-0.2-9.8-0.2s-6.5 0.2-9.8 0.2c-302.3 0-547.4-255.5-547.4-570.8 0-53.7 20.8-178.1 52.1-229.7l505.1-959.2 505.1 959.2c31.3 51.6 52.1 176 52.1 229.7 0 315.3-245 570.8-547.4 570.8zm0 0" stroke="#040200" stroke-width="40" stroke-miterlimit="10"/>
  <g id="change1_3"><path fill="#ffebdb" d="m242.84 170.02c0 16.69-13.54 30.23-30.24 30.23s-30.24-13.54-30.24-30.23c0-16.7 13.54-30.24 30.24-30.24s30.24 13.54 30.24 30.24"/></g>
  <path stroke-linecap="round" transform="matrix(.1 0 0 -.1 0 425.2)" fill="none" stroke-linejoin="round" d="m2428.4 2551.8c0-166.9-135.4-302.3-302.4-302.3s-302.4 135.4-302.4 302.3c0 167 135.4 302.4 302.4 302.4s302.4-135.4 302.4-302.4zm0 0" stroke="#040200" stroke-width="40" stroke-miterlimit="10"/>
 </g>
</svg>