<?xml version="1.0" encoding="UTF-8" standalone="no"?><svg xmlns="http://www.w3.org/2000/svg" xmlns:xlink="http://www.w3.org/1999/xlink" contentScriptType="text/ecmascript" fill="#000000" width="307" zoomAndPan="magnify" contentStyleType="text/css" viewBox="0.0 0.0 307.0 204.4" height="204" preserveAspectRatio="xMidYMid meet" version="1"><g id="change1_1"><path fill="#000000" d="M277.536,0H29.495C13.232,0,0,13.232,0,29.495v145.428c0,16.263,13.232,29.495,29.495,29.495h248.041c16.263,0,29.495-13.232,29.495-29.495V29.495c0-16.263-13.232-29.495-29.495-29.495ZM284.502,183.312l-49.373-60.202-14.369,11.783,41.778,50.941H44.466l41.81-50.937-14.364-11.792-49.403,60.188c-2.396-2.003-3.925-5.011-3.925-8.371V58.86c0-10.966,12.665-17.081,21.253-10.262l107.901,85.679c1.692,1.343,3.734,2.014,5.778,2.014s4.086-.672,5.778-2.014l107.901-85.68c8.588-6.819,21.253-.703,21.253,10.262v116.065c0,3.37-1.537,6.386-3.945,8.39ZM31.922,18.583h243.184l-121.591,96.551L31.922,18.583Z"/></g></svg>