<?xml version="1.0" encoding="UTF-8" standalone="no"?><svg xmlns="http://www.w3.org/2000/svg" xmlns:xlink="http://www.w3.org/1999/xlink" contentScriptType="text/ecmascript" fill="#000000" width="291.5" zoomAndPan="magnify" contentStyleType="text/css" viewBox="-11.9 77.6 291.5 131.5" height="131.5" preserveAspectRatio="xMidYMid meet" version="1"><g><g id="change1_36"><path fill="#010202" d="M-11.24,146.05c12.31,6.26,29.41,15.41,41.69,22.09c2.14,1.18,4.95,0.41,6.23-1.67c0,0,0.42-0.57,0.42-0.57 c2.22-3.06,4.37-6.18,6.44-9.35c10.23-15.87,18.79-32.92,25.06-50.73c0.8-2.29-0.52-4.91-2.77-5.8c-0.39-0.21-1.51-0.75-1.92-0.96 c0,0-10.25-5.11-10.25-5.11c-3.41-1.72-6.85-3.35-10.21-5.18c-6.7-3.66-13.45-7.22-20.09-10.97l0.09-0.18 c7.28,3.6,23.64,11.9,30.77,15.15c0,0,10.34,4.88,10.34,4.88c1.7,0.84,3.68,1.47,4.79,3.12c1.17,1.57,1.5,3.72,0.89,5.58 c-1.23,3.62-2.56,7.19-3.98,10.73c-5.65,14.17-12.77,27.76-21.21,40.47c-2.11,3.18-4.3,6.3-6.56,9.37 c-1.04,1.6-2.61,3.04-4.58,3.33c-1.96,0.43-3.89-0.41-5.48-1.44C28.53,168.62-11.88,146.37-11.24,146.05L-11.24,146.05z"/></g><g id="change1_84"><path fill="#010202" d="M70.38,105.07c2.78,0.95,5.79,2.18,8.54,3.22c0,0,1.44,0.56,1.44,0.56c2,0.81,3.26,2.91,3.26,5.05 c1.63,22.27-8.53,46.9-29.26,57.11c-1.78,0.51-3.66,0.01-5.05-1.15c0,0-1.24-0.89-1.24-0.89c-2.38-1.74-5.06-3.57-7.38-5.37 c0,0,0.11-0.17,0.11-0.17c2.39,1.49,6.67,4.16,9.02,5.62c2.34,1.75,4.67,1.02,6.78-0.67c3.33-2.28,6.42-4.91,9.19-7.85 c9.72-10.36,15.07-24.22,16.29-38.28c0.2-2.01,0.31-4.03,0.33-6.05c-0.01-1.95,0.26-4.17-1.29-5.63c-0.68-0.73-1.65-1.06-2.57-1.5 c0,0-2.76-1.27-2.76-1.27s-5.51-2.55-5.51-2.55L70.38,105.07L70.38,105.07z"/></g><g id="change1_86"><path fill="#010202" d="M83,117.37c13.33-0.71,26.4-3.72,38.36-9.68c0,0,0.74-0.36,0.74-0.36c1.77,1.14,3.5,2.33,5.2,3.57 c1.31,1,3.27,2.36,4.52,3.42c0,0-0.1,0.17-0.1,0.17l-9.78-5.54c0,0,0.14,0,0.14,0c-11.71,6.88-25.59,9.96-39.11,8.62 C82.98,117.57,83,117.37,83,117.37L83,117.37z"/></g><g id="change1_52"><path fill="#010202" d="M66.05,160.48c2.6,0.98,5.07,2.34,7.35,3.94c1.46,0.84,2.21,2.95,3.69,3.45c0.2,0.05,0.35,0.07,0.8,0.08 c2.51-0.1,4.36,2.52,4.7,4.69c0,0-1.61-1.39-1.61-1.39c1.04,0.05,2.07,0.02,3.09-0.08c3.36-0.09,6.24-1.78,9.57-2.34 c3.6-0.56,8.27-0.41,9.9,3.49c0.53,1.11,0.74,2.3,0.71,3.45c0,0-0.2,0.03-0.2,0.03c-0.97-5.71-5.11-6.43-10.09-5.31 c-2.19,0.38-4.15,1.58-6.38,2.1c-2.19,0.56-4.48,0.75-6.73,0.59c-0.16-0.02-0.13,0.04-0.17-0.15c-0.29-1.53-1.16-3.31-2.93-3.32 c-0.84-0.01-1.76-0.33-2.38-0.94c-0.97-0.86-1.48-2.05-2.35-2.96c-0.92-0.84-1.92-1.62-2.91-2.37c-1.34-1-2.73-1.94-4.17-2.8 L66.05,160.48L66.05,160.48z"/></g><g id="change1_48"><path fill="#010202" d="M94.41,185.09c4.88-2.69,7.96-6.8,10.5-11.67c2.08-3.55,4.1-7.11,6.52-10.49c3.52-5.81,12.59-6.19,16.76-0.82 c1.43,1.76,1.68,4.45,0.74,6.48c0,0-0.42,0.97-0.42,0.97c-1.65,3.82-3.61,7.5-5.98,10.93c-0.33,0.44-0.84,1.18-1.19,1.59 c-0.01,0.01-0.05,0.06-0.02,0.02c0.11-0.16,0.17-0.4,0.16-0.59l-0.23,0.68c-2.16,2.61-4.55,5.01-7.05,7.29 c-0.82,0.77-1.71,1.47-2.57,2.18l-0.14-0.14c3.15-3.15,6.08-6.52,8.75-10.09l-0.03,0.08c0.03-0.1,0.12-0.2,0.17-0.28 c0.09-0.13,0.34-0.49,0.43-0.63c2.04-3.12,3.73-6.45,5.22-9.86c0.5-1.23,1.13-2.48,1.46-3.76c0.7-2.76-1.62-5.06-4.01-6.01 c-2.44-1.03-5.37-0.85-7.72,0.33c-2.28,1.4-3.65,3.94-5.19,6.08c-3.15,4.42-5.55,9.4-9.31,13.37c-1.97,1.9-4.28,3.42-6.76,4.53 C94.5,185.27,94.41,185.09,94.41,185.09L94.41,185.09z"/></g><g id="change1_115"><path fill="#010202" d="M127.61,164.95c0.54-0.82,1.23-1.56,2.06-2.12c0,0-0.25,0.42-0.25,0.42c0-0.29,0.25-0.43,0.44-0.55 c0.42-0.26,0.88-0.51,1.34-0.71c3-1.66,6.26,0.28,8.21,2.62c1.57,1.92,3.21,4.12,3.23,6.7c0.02,1.41-0.54,2.77-1.34,3.91 c-2.26,3.65-4.57,7.22-6.77,10.92c-2.26,3.73-4.7,7.73-8.33,10.37c-1.84,1.31-3.78,2.42-5.88,3.1c0,0-0.09-0.18-0.09-0.18 c3.83-1.98,7.13-4.96,9.42-8.62c2.32-3.63,4.24-7.53,6.55-11.2l3.51-5.47c1.41-1.73,1.39-4.03,0.23-5.89 c-1.43-2.6-3.63-5.97-6.94-5.86c-1.02,0.11-2.03,0.45-2.95,0.9c0,0-0.04,0.02-0.04,0.02s-0.02,0.01-0.02,0.01 c-0.01,0.01,0.06-0.05,0.04-0.09c-0.75,0.57-1.63,1.06-2.25,1.82C127.76,165.08,127.61,164.95,127.61,164.95L127.61,164.95z"/></g><g id="change1_50"><path fill="#010202" d="M136.79,178.21c2.46-1.76,6.24-0.97,8.19,1.36c3.69,3.86,1.69,9.99-2.62,12.37 c-4.38,3.09-9.96,0.42-10.35-4.87c0,0,0.19-0.07,0.19-0.07c1.29,3.96,5.55,6.2,9.09,3.39c2.14-1.41,3.81-3.7,3.76-6.33 c-0.1-3.97-4.39-7.11-8.19-5.67C136.85,178.4,136.79,178.21,136.79,178.21L136.79,178.21z"/></g><g id="change1_78"><path fill="#010202" d="M142.17,190.09c-2.21,4.22-3.1,8.51-5.62,12.5c-2.3,3.56-6.38,6.48-10.88,5.9c-2.6-0.58-4.39-1.97-6.42-3.43 c-1.22-0.95-2.42-1.88-3.54-2.94c0,0,0.11-0.17,0.11-0.17l3.93,2.18c1.93,1.05,3.95,2.21,6.12,2.62c3.77,0.24,7.09-2.34,9.17-5.29 c2.55-3.69,3.97-8.07,6.98-11.5C142.01,189.96,142.17,190.09,142.17,190.09L142.17,190.09z"/></g><g id="change1_5"><path fill="#010202" d="M105,196.11c2.07,0.29,3.59,1.45,4.77,3c0.92,1.4,1.05,1.96,2.99,2.61c0,0,0.07,0.19,0.07,0.19 c-0.82,0.33-1.78,0.47-2.66,0.15c-0.9-0.3-1.52-1.07-2.02-1.76c-0.99-1.43-2.14-2.73-3.29-4.04 C104.86,196.25,105,196.11,105,196.11L105,196.11z"/></g><g id="change1_69"><path fill="#010202" d="M92.27,187.64c0.76,1.06,1.45,2.14,2.56,2.64c0.9,0.31,2.72,1.18,3.66,1.66c1.13,0.62,1.92,1.28,3.17,1.61 c1.13,0.31,2.49,0.38,4.05,0.54c0,0,0.07,0.19,0.07,0.19c-1.96,0.78-4.28,1.24-6.32,0.41c0,0-1.91-0.98-1.91-0.98 c-1.24-0.7-2.5-1.33-3.69-2.17c-1.13-0.99-1.62-2.45-1.79-3.86L92.27,187.64L92.27,187.64z"/></g><g id="change1_73"><path fill="#010202" d="M77.13,171.37c1.67,1.49,2.45,3.57,2.74,5.71c0.14,1.34-0.04,2.07,0.33,3.21c0.52,1.74,1.51,2.98,2.45,4.83 c0,0-0.11,0.17-0.11,0.17c-2.16-1.42-4.35-3.43-4.57-6.18c0.1-2.61-0.13-5.2-1.03-7.66C76.94,171.44,77.13,171.37,77.13,171.37 L77.13,171.37z"/></g><g id="change1_53"><path fill="#010202" d="M83.1,187.41c1.71-1.41,3.74-2.24,5.83-2.86c0,0-0.91,2.89-0.91,2.89c-0.59-0.6-1.21-1.19-1.7-1.88 c-1.58-2.04-2.61-4.51-2.62-7.13c0,0,0.18-0.09,0.18-0.09c1.51,2.91,3.51,5.64,5.74,8.02c0,0-0.31,0.06-0.31,0.06l-6.17,1.18 L83.1,187.41L83.1,187.41z"/></g><g id="change1_96"><path fill="#010202" d="M91.79,173.56c-0.67,1.76-1.43,3.26-1.83,4.88c0.02,0.1,0.08-0.01,0.11,0.02c0.03,0.02,0.34,0.34,0.81,0.53 c2.35,1.21,4.48-0.21,6.91-1.27c0,0,0.16,0.12,0.16,0.12c-0.95,1.18-2.09,2.23-3.47,2.9c-1.36,0.7-3.1,0.77-4.49,0.03 c-1.01-0.47-2.14-1.59-1.72-2.83c0.74-1.75,1.99-3.26,3.38-4.54C91.66,173.41,91.79,173.56,91.79,173.56L91.79,173.56z"/></g><g id="change1_6"><path fill="#010202" d="M94.67,173.55c2.41-0.65,4.61,1.45,4.61,3.77c0.01,0.74-0.18,1.52-0.78,2.23l-0.2,0.03 c-0.48-2.35-1.8-4.44-3.74-5.87C94.56,173.72,94.67,173.55,94.67,173.55L94.67,173.55z"/></g><g id="change1_23"><path fill="#010202" d="M118.81,163.5c-1.09,2.5-2.4,4.74-2.71,7.24c-0.05,1.42,0.54,2.92,2,3.19c3.48,0.68,5.97-2.24,8.58-4.52 c0,0,0.18,0.09,0.18,0.09c-1.08,1.96-2.44,3.81-4.28,5.16c-2.65,2.21-7.8,1.61-8.2-2.41c-0.44-3.45,2.18-6.44,4.29-8.89 C118.66,163.36,118.81,163.5,118.81,163.5L118.81,163.5z"/></g><g id="change1_57"><path fill="#010202" d="M138.62,170.92c-2.79-0.96-5.43-2.28-7.98-3.74c0,0,1.99-0.33,1.99-0.33c-1.04,1.76-1.89,3.47-2.67,5.38 c-0.54,1.67-1.46,2.5-0.24,3.81c2.81,2.68,6.42-1.1,7.96-3.94c0,0,0.19,0.05,0.19,0.05c-0.56,2.05-1.65,4.02-3.37,5.34 c-0.86,0.65-1.9,1.11-3.01,1.12c-2.16-0.01-4.5-1.79-4.33-4.11c0.64-3.16,2.36-5.98,4.18-8.59c0,0,0.09-0.12,0.09-0.12l0.12,0.08 l3.56,2.47l3.61,2.41L138.62,170.92L138.62,170.92z"/></g><g id="change1_46"><path fill="#010202" d="M170.46,146.31c3.9,4.74,8.56,8.4,13.76,11.57c5.92,3.69,5.79,8.73,3.81,14.7c-1.1,4.12-2.32,8.23-3.63,12.29 c-1.21,5.06-5.9,7.02-10.64,7.22c0,0-0.04-0.2-0.04-0.2c1.19-0.25,2.36-0.59,3.5-1.02c2.31-0.76,4.33-2.36,5.24-4.64 c0.79-2.26,3.87-15.14,4.58-17.71c1.54-5.89-2.57-8.43-6.82-11.38c-3.97-2.89-7.31-6.6-9.91-10.74 C170.3,146.42,170.46,146.31,170.46,146.31L170.46,146.31z"/></g><g id="change1_29"><path fill="#010202" d="M135.05,201.65c1.85-0.59,4.01-0.05,5.26,1.66c0.23,0.29,0.33,0.57,0.55,0.69c1.84,0.59,4.27-0.33,6.2-0.63 c1.43-0.35,2.88-0.82,4.55-1.31l0.13,0.15c-2.39,2.22-9.41,5.71-12.19,2.95c-0.29-0.33-0.42-0.74-0.61-1.07 c-0.77-1.36-2.36-2.06-3.91-2.23C135.03,201.84,135.05,201.65,135.05,201.65L135.05,201.65z"/></g><g id="change1_104"><path fill="#010202" d="M144.73,192.69c5.96,4.52,12.24,12.91,20.07,6.9c0,0,0.16,0.12,0.16,0.12c-4.78,6.54-12.11,3.33-16.47-1.84 c-1.44-1.58-2.78-3.27-3.93-5.08C144.56,192.8,144.73,192.69,144.73,192.69L144.73,192.69z"/></g><g id="change1_74"><path fill="#010202" d="M149.31,169.81c-0.72,6.92,0.88,11.03,6.78,14.76c2.47,1.89,4.6,3.86,6.94,5.95 c2.53,2.12,3.91,5.97,3.42,9.31c0,0-1.6-1.76-1.6-1.76c3.99-0.12,6.93-3.35,8.28-6.93c0,0-0.11,0.48-0.11,0.48 c0.13-1.67,0.09-3.34-0.1-5c-0.37-3.26-1.04-6.53-2.98-9.11c-0.48-0.63-1.02-0.99-1.67-1.52c-2.17-1.78-4.03-3.73-5.9-5.85 c-3.93-4.22-5.71-10.43-4.82-16.02c0,0,0.16-1.22,0.16-1.22s1.16,0.05,1.16,0.05c7.31,0.42,9.47,4.85,12.48,10.63 c1.59,2.75,3.34,5.72,4.85,8.49c0,0-0.16,0.11-0.16,0.11c-1.18-1.8-4.22-6.45-5.36-8.2c-3.06-5.06-5.11-9.5-11.84-9.61 c0,0,0.15-0.13,0.15-0.13c-0.91,7.96,2.85,13.35,8.5,18.47c1.25,1.31,2.83,2.17,4,3.58c3.24,4.39,3.76,10.19,3.47,15.48 c-1.55,4.3-5.45,8.1-10.24,8.03c0.47-3.02-0.43-6.17-2.72-8.26c-2.16-2.06-4.31-4.18-6.63-6.07c-2.37-1.81-4.88-3.79-5.82-6.76 c-1.05-2.87-0.94-6-0.41-8.95L149.31,169.81L149.31,169.81z"/></g><g id="change1_42"><path fill="#010202" d="M108.71,144.37c1.05,2.64,2.79,3.91,5.46,3.16c4.84-1.55,9.28-4.69,12.72-8.46c1.77-1.97,3.33-4.2,4.95-6.56 c0,0,0.19,0.07,0.19,0.07c-1.87,5.27-5.18,10.15-9.93,13.22c-3.26,1.92-8.14,4.95-11.77,2.37c-1.12-0.94-1.61-2.38-1.81-3.76 C108.52,144.39,108.71,144.37,108.71,144.37L108.71,144.37z"/></g><g id="change1_122"><path fill="#010202" d="M129.19,125.72c1.29,2.71,2.92,5.1,5.36,6.71c2.42,1.5,5.32,1.6,8.15,2.29c5.26,1.16,11.25,2.5,16.31,4.3 c0.38,0.17,0.61,0.25,0.92,0.6c0.12,0.17,0.13,0.13,0.28,0.51c0.29,1.28-0.61,1.72-0.83,1.84c-0.62,0.22-0.72,0.13-1.19,0.08 c-0.03-0.01-0.28-0.04-0.12-0.03c0.47-0.89-0.63,2,1.36-2.07c-1.36-1.38-0.52-0.45-0.89-0.77c0,0-0.07-0.02-0.05-0.01 c4.37,0.88,8.67,3.36,9.81,8c0,0-0.18,0.08-0.18,0.08c-1.76-4.09-5.79-5.96-10-6.52c-0.02,0-0.03-0.01-0.04-0.01 c-0.04-0.04,0.04,0.06-0.1-0.09c0.21-0.43,0.1-0.12,0.15-0.22c0.18,0.01,0.42,0.05,0.59,0.04c0.01,0,0.02,0,0,0 c-0.02,0.01-0.1,0.05-0.07,0.17c0.03,0.08,0.05,0.06-0.02,0.03c-4.83-1.47-11.44-2.85-16.35-4.11c-3.89-0.94-8.32-1.68-10.68-5.29 c-1.23-1.63-2.06-3.54-2.59-5.5L129.19,125.72L129.19,125.72z"/></g><g id="change1_33"><path fill="#010202" d="M112.79,132.68c2.63-0.71,5.64,0.13,7.43,2.27c0,0-0.07,0.32-0.07,0.32c-0.76,3.52-2.33,6.88-4.63,9.68 c0,0-0.58-0.03-0.58-0.03c-0.9-0.04-8.2-0.4-8.92-0.43c0.35-4.28,2.03-8.86,4.94-11.98c1.67-2.08,2.78-4.07,3.5-6.69 c0.97-2.77,2.27-5.14,3.69-7.75c1.01-1.87,2.84-3.8,5.08-4.32c2.17-0.56,4.06-0.01,6.05,0.14c1.7,0.17,3.36,0.1,5.05-0.15 c1.84-0.22,3.09-0.64,4.86-1.41c1.95-0.77,3.88-1.03,5.78-1.23c7.54-0.52,15.66,1.5,21.13,6.91c2.68,2.67,4.66,5.98,5.64,9.53 c0,0-0.19,0.07-0.19,0.07c-3.76-10.86-15.47-16.1-26.4-14.82c-2.79,0.17-5.28,1.21-7.83,2.23c-2.65,0.77-5.45,1.04-8.2,0.81 c-2.67-0.26-5.58-0.95-7.66,1.12c-1.89,1.94-2.89,4.6-4.15,6.97c-0.86,1.63-1.22,3.42-1.99,5.1c-1.45,3.41-4.55,5.75-6.07,9.08 c-0.77,1.64-1.32,3.39-1.62,5.17c0,0-0.13-0.17-0.13-0.17l7.53,0.63l-0.11,0.05c2.11-2.38,3.74-5.96,4.58-8.6 c-1.58-1.95-4.24-2.76-6.68-2.32C112.83,132.88,112.79,132.68,112.79,132.68L112.79,132.68z"/></g><g id="change1_100"><path fill="#010202" d="M165.74,118.62c4.24-1.94,9.1-2.02,13.49-0.62c1.46,0.47,2.88,1.1,4.18,2.1l-0.04,0.2 c-5.71-1.21-11.79-1.52-17.62-1.48C165.75,118.82,165.74,118.62,165.74,118.62L165.74,118.62z"/></g><g id="change1_27"><path fill="#010202" d="M220.71,178.05c9.88-25.78-1.94-53.57-25.58-66.8c0,0,1.27,0.13,1.27,0.13l-17.17,5.84 c0,0,0.63-2.71,0.63-2.71c3.51,3.43,6.55,7.42,8.73,11.85c1.25,2.76,2.41,5.52,4.52,7.72c2.08,2.32,5.05,3.9,7.02,6.55 c3.23,4.01,4.06,9.59,4.34,14.39c0.72,7.98,0.42,18.21-7.28,23.07c-1.5,0.96-3.17,1.61-4.86,2.01c0,0,0.56-2.88,0.56-2.88 c4.49,3.27,10.17,4.75,15.69,4.18c18.63-7.32,50.86-19.56,70.95-26.86c0,0,0.07,0.19,0.07,0.19l-70.81,28.34 c-6.06,0.7-12.35-0.97-17.25-4.61c10.98-2.29,11.99-14.01,10.98-23.29c-0.31-4.67-1.03-9.54-3.97-13.31 c-1.9-2.55-4.8-4.08-6.89-6.47c-2.21-2.33-3.51-5.31-4.78-8.19c-2.06-4.25-4.95-8.07-8.31-11.39c0,0-0.2-0.2-0.2-0.2l0.27-0.09 c0,0,17.21-5.75,17.21-5.75l0.07-0.02c0,0,0.06,0.04,0.06,0.04c17.25,9.87,29.53,28.83,28.94,49c-0.09,6.63-1.49,13.23-4.03,19.35 C220.89,178.13,220.71,178.05,220.71,178.05L220.71,178.05z"/></g><g id="change1_94"><path fill="#010202" d="M184.46,179.12c3.37-2.03,6.63-3.2,10.05-4.97c2.13-0.98,3.98-1.95,6.34-2.74c0,0,0.14,0.15,0.14,0.15 c-4.45,4.35-10.29,7.18-16.5,7.76C184.48,179.32,184.46,179.12,184.46,179.12L184.46,179.12z"/></g><g id="change1_111"><path fill="#010202" d="M191.23,110.58c-0.07-1.4-0.24-3.19-0.26-4.57c0,0,0.38-0.15,0.38-0.15c9.62-3.8,23.06-9.1,32.45-13.11 c10.83-4.52,22.03-8.33,33.55-10.71c0,0,0.06,0.19,0.06,0.19c-11.13,3.6-22.09,7.74-32.84,12.34c-5.39,2.29-10.83,4.47-16.34,6.44 c-5.51,1.98-11.08,3.8-16.69,5.45c0,0,0.08-0.1,0.08-0.1s-0.18,4.23-0.18,4.23S191.23,110.58,191.23,110.58L191.23,110.58z"/></g><g id="change1_39"><path fill="#010202" d="M220.03,141.95c4.14,11.89,4.6,25.95-1.73,37.17c0,0-0.07-0.03-0.07-0.03 C223.78,167.56,223.02,153.93,220.03,141.95L220.03,141.95z"/></g><g id="change1_95"><path fill="#010202" d="M216.38,137.64c6.79,11.18,6.44,25.27,2.07,37.27c-0.7,1.64-1.3,3.63-2.25,5 C221.83,166.41,222.98,150.85,216.38,137.64L216.38,137.64z"/></g><g id="change1_105"><path fill="#010202" d="M218.48,152c1.78,8.47,0.67,17.48-2.66,25.44c-0.51,1.12-1.02,2.25-1.63,3.32l-0.07-0.03 C218.04,171.75,219.34,161.58,218.48,152L218.48,152z"/></g><g id="change1_34"><path fill="#010202" d="M214.84,152.43c4.12,9.62,1.92,21.25-4.42,29.4c0,0-0.06-0.04-0.06-0.04 C215.96,173.2,217.8,162.15,214.84,152.43L214.84,152.43z"/></g><g id="change1_101"><path fill="#010202" d="M211.97,156.85c2.14,8.79,1.13,19.52-6.08,25.75c0,0-0.06-0.05-0.06-0.05 C212.37,175.78,212.93,165.58,211.97,156.85L211.97,156.85z"/></g><g id="change1_87"><path fill="#010202" d="M209.65,160.27c2.73,8.01-0.9,17.48-7.96,22c0,0-0.05-0.06-0.05-0.06 C208.15,176.96,211.16,168.33,209.65,160.27L209.65,160.27z"/></g><g id="change1_90"><path fill="#010202" d="M207.67,162.38c1.66,7.85-3.52,16.03-10.83,18.88c0,0-0.04-0.07-0.04-0.07 C203.74,177.42,208.07,170.18,207.67,162.38L207.67,162.38z"/></g><g id="change1_83"><path fill="#010202" d="M204.57,170.02c-1.73,4.4-5.41,8.54-9.75,10.26C198.71,177.58,201.96,173.76,204.57,170.02L204.57,170.02z"/></g><g id="change1_17"><path fill="#010202" d="M183.14,114.16c2.64,1.21,4.37,4.95,3.23,7.58C186.39,118.89,184.9,116.15,183.14,114.16L183.14,114.16z"/></g><g id="change1_109"><path fill="#010202" d="M185.86,113.26c2.74,1.9,4.21,6.2,2.86,9.2C188.97,119.15,187.63,115.82,185.86,113.26L185.86,113.26z"/></g><g id="change1_40"><path fill="#010202" d="M188.27,112.47c3.52,1.84,5.66,6.3,4.79,10.19c0,0-0.07,0-0.07,0C192.96,118.76,190.87,115.07,188.27,112.47 L188.27,112.47z"/></g><g id="change1_35"><path fill="#010202" d="M192.34,110.76c2.21,3.3,3.78,7.59,3.18,11.5c-0.54-3.9-1.83-7.8-3.25-11.47 C192.27,110.79,192.34,110.76,192.34,110.76L192.34,110.76z"/></g><g id="change1_80"><path fill="#010202" d="M195.94,109.91c0.76,1.64,1.13,3.29,1.4,4.97c0.28,1.62,0.75,3.51,0.42,5.15c0,0-1.16-5.02-1.16-5.02 l-0.74-5.1L195.94,109.91L195.94,109.91z"/></g><g id="change1_91"><path fill="#010202" d="M58.94,138.73c-3.41,9.68-8.45,18.84-14.8,26.91c0,0-0.06-0.04-0.06-0.04 C49.74,157.1,54.59,147.79,58.94,138.73L58.94,138.73z"/></g><g id="change1_88"><path fill="#010202" d="M62.3,140.26c-2.6,5.57-5.8,11.16-9.01,16.39c-1.1,1.88-2.69,4.54-3.86,6.41c-0.71,0.94-1.36,2.37-2.14,3.09 C51.28,158.69,57.79,147.37,62.3,140.26L62.3,140.26z"/></g><g id="change1_45"><path fill="#010202" d="M66.73,137.81c-2.89,11.75-9.39,22.67-18.31,30.83c0,0-0.05-0.05-0.05-0.05 C56.67,159.88,62.84,149.02,66.73,137.81L66.73,137.81z"/></g><g id="change1_75"><path fill="#010202" d="M70.23,140.41c-3.13,9.95-9.02,18.98-16.51,26.21c-1.11,0.92-2.25,2.24-3.42,2.87 C58.94,161.39,65.66,151.13,70.23,140.41L70.23,140.41z"/></g><g id="change1_37"><path fill="#010202" d="M71.76,143.76c-2.88,8.83-7.69,17.09-13.92,23.97c0,0-0.06-0.05-0.06-0.05 C63.35,160.34,67.93,151.98,71.76,143.76L71.76,143.76z"/></g><g id="change1_49"><path fill="#010202" d="M74.35,106.23c-0.29,5.63-2.11,11.68-5.41,16.15C71.4,117.27,73.04,111.57,74.35,106.23L74.35,106.23z"/></g><g id="change1_119"><path fill="#010202" d="M78.24,108.78c-0.17,5.35-2.68,10.66-6.64,14.24c0,0-0.06-0.05-0.06-0.05 C74.87,118.88,77.01,113.73,78.24,108.78L78.24,108.78z"/></g><g id="change1_11"><path fill="#010202" d="M81.17,110.41c-0.35,2.79-1.16,5.63-1.94,8.32c-0.66,1.94-1.18,4.16-1.92,6.09 c-0.26,0.48-0.59,1.84-0.89,1.98c0.64-2.45,1.37-5.9,2.09-8.28C78.54,118.61,81.05,110.12,81.17,110.41L81.17,110.41z"/></g><g id="change1_116"><path fill="#010202" d="M97.77,171.88c2.21,0.65,3.44,3.72,2.03,5.62c0.17-2.03-0.42-4.08-2.08-5.57 C97.72,171.93,97.77,171.88,97.77,171.88L97.77,171.88z"/></g><g id="change1_31"><path fill="#010202" d="M86.43,177.76c1.23,2.53,2.74,4.08,4.62,5.99C88.61,182.88,86.42,180.28,86.43,177.76L86.43,177.76z"/></g><g id="change1_117"><path fill="#010202" d="M103.55,184.26c0.56,0.34,0.73,0.73,0.81,1.14c0.05,0.31-0.04,1.08-0.52,1.34c-0.13-0.61-0.31-1.85-0.37-2.47 C103.48,184.28,103.55,184.26,103.55,184.26L103.55,184.26z"/></g><g id="change1_79"><path fill="#010202" d="M105.75,183.26c0.55,0.84,0.86,1.52,1.23,2.22c0.2,0.53,0.99,1.74,0.99,2.39 C106.69,186.81,105.52,184.85,105.75,183.26L105.75,183.26z"/></g><g id="change1_114"><path fill="#010202" d="M105.11,174.74c1.7,4.36,3.71,8.44,5.43,12.67C107.89,183.7,105.71,179.14,105.11,174.74L105.11,174.74z"/></g><g id="change1_43"><path fill="#010202" d="M107.17,172.34c1.62,4.11,3.24,8.2,4.19,12.4C109.42,180.9,107.7,176.5,107.17,172.34L107.17,172.34z"/></g><g id="change1_1"><path fill="#010202" d="M109.42,170.06c1.07,2.25,1.62,4.59,2.36,6.93c0.6,2.3,1.56,4.77,1.78,7.11c-1.95-4.42-3.24-9.29-4.22-14.02 C109.34,170.08,109.42,170.06,109.42,170.06L109.42,170.06z"/></g><g id="change1_93"><path fill="#010202" d="M111.52,166.05c-0.04,6.76,2.23,13.31,6.3,18.69c0,0-0.05,0.05-0.05,0.05 C113.01,180,110.3,172.62,111.52,166.05L111.52,166.05z"/></g><g id="change1_68"><path fill="#010202" d="M116.47,175.39c0.56,2.82,1.76,4.78,3.19,7.04C117.43,181,115.83,177.89,116.47,175.39L116.47,175.39z"/></g><g id="change1_64"><path fill="#010202" d="M117.29,171.27c0.66,1.78,1.01,2.65,1.57,4.47c0,0-0.05,0.05-0.05,0.05c-0.62-0.56-1.11-1.27-1.41-2.06 c-0.27-0.8-0.33-1.66-0.18-2.48L117.29,171.27L117.29,171.27z"/></g><g id="change1_118"><path fill="#010202" d="M119.03,169.44c0.47,2.33,0.96,3.76,1.93,5.92c-0.68-0.22-1.62-1.88-1.88-2.66 C118.82,171.88,118.61,170.06,119.03,169.44L119.03,169.44z"/></g><g id="change1_70"><path fill="#010202" d="M120.96,167.24c0.37,2.75,1.43,4.53,2.78,6.8C121.6,172.67,120.14,169.59,120.96,167.24L120.96,167.24z"/></g><g id="change1_59"><path fill="#010202" d="M128.84,173.83c0.79,1.75,1.52,2.8,3.08,4.08c0,0-0.01,0.07-0.01,0.07c-1.94-0.31-3.36-2.22-3.14-4.16 C128.76,173.82,128.84,173.83,128.84,173.83L128.84,173.83z"/></g><g id="change1_110"><path fill="#010202" d="M130.85,173.29c0.47,1.94,0.93,2.62,2.18,4.17c0,0-0.03,0.07-0.03,0.07c-0.83-0.3-1.58-0.88-2.02-1.66 c-0.42-0.8-0.47-1.76-0.2-2.6L130.85,173.29L130.85,173.29z"/></g><g id="change1_62"><path fill="#010202" d="M132.04,172c0.34,1.52,0.93,2.75,2.18,3.66c0.34,0.31,1.31,0.75,1.36,0.95c-1.1-0.09-2.22-0.56-2.94-1.44 c-0.71-0.89-0.92-2.1-0.67-3.19C131.97,171.99,132.04,172,132.04,172L132.04,172z"/></g><g id="change1_67"><path fill="#010202" d="M134.23,169.82c-1.05,2.48,0.17,4.65,2.72,5.34c0,0,0.01,0.07,0.01,0.07c-2.02,0.26-4.19-1.57-3.68-3.7 c0.14-0.66,0.46-1.27,0.9-1.77C134.18,169.77,134.23,169.82,134.23,169.82L134.23,169.82z"/></g><g id="change1_97"><path fill="#010202" d="M136.07,184.47c-0.12,2.03,0.19,3.9,1.35,5.57c0.32,0.58,1.25,1.43,1.26,1.69 C136.07,190.52,134.61,186.88,136.07,184.47L136.07,184.47z"/></g><g id="change1_47"><path fill="#010202" d="M138.45,183.27c0.27,2.95,0.84,5.11,2.04,7.81C138.55,189.48,137.53,185.62,138.45,183.27L138.45,183.27z"/></g><g id="change1_22"><path fill="#010202" d="M140.74,182.27c-0.21,2.93,0.4,5.13,1.32,7.78C140.17,188.09,139.45,184.57,140.74,182.27L140.74,182.27z"/></g><g id="change1_28"><path fill="#010202" d="M142.58,182.81c0.43,2.12,0.72,3.38,1.28,5.46c-0.51-0.14-1.3-1.92-1.42-2.55 C142.26,185.08,142.17,183.19,142.58,182.81L142.58,182.81z"/></g><g id="change1_82"><path fill="#010202" d="M123.23,197.78c0.16,1.06,0.15,1.92,0.18,2.81c-0.05,0.74,0.15,2.07-0.15,2.84 C122.58,201.72,122.38,199.32,123.23,197.78L123.23,197.78z"/></g><g id="change1_20"><path fill="#010202" d="M124.9,195.91c0.31,1.08,0.4,2,0.53,2.95c0.03,0.86,0.36,2.09,0.13,3.02 C124.73,200.11,124.26,197.67,124.9,195.91L124.9,195.91z"/></g><g id="change1_9"><path fill="#010202" d="M128.73,193.46c-0.63,1.06-1.17,2.04-1.39,3.2c-0.3,1.29,0.05,2.16,0.14,3.48c-0.76-1.02-1.12-2.35-0.88-3.62 c0.25-1.27,1.06-2.37,2.08-3.12C128.69,193.4,128.73,193.46,128.73,193.46L128.73,193.46z"/></g><g id="change1_106"><path fill="#010202" d="M130.06,190.52c0.55,2.75,1.11,5.62,0.99,8.32C130.13,196.27,129.54,193.11,130.06,190.52L130.06,190.52z"/></g><g id="change1_2"><path fill="#010202" d="M132.22,188.41c-0.21,3.02-0.08,5.34,0.55,8.3C131.19,194.6,130.94,190.7,132.22,188.41L132.22,188.41z"/></g><g id="change1_65"><path fill="#010202" d="M114.45,188.77c0.29,2.87,1.17,4.97,2.23,7.53C114.73,194.48,113.6,191.21,114.45,188.77L114.45,188.77z"/></g><g id="change1_60"><path fill="#010202" d="M116.5,186.35c1.02,3.23,0.39,7.2,4.07,8.79c0,0-0.02,0.07-0.02,0.07c-1.79-0.33-3.37-1.68-3.72-3.51 C116.52,189.99,116.31,187.94,116.5,186.35L116.5,186.35z"/></g><g id="change1_99"><path fill="#010202" d="M118.58,183.72c0.59,3.56,1.81,6.48,3.05,9.73C119.46,190.83,118.03,187,118.58,183.72L118.58,183.72z"/></g><g id="change1_89"><path fill="#010202" d="M120.39,181.51c0.84,3.48,2.16,6.38,3.53,9.56C121.65,188.55,120.08,184.8,120.39,181.51L120.39,181.51z"/></g><g id="change1_102"><path fill="#010202" d="M122.48,178.24c-0.13,3.91,0.86,7.1,3.5,10.03c0,0-0.04,0.06-0.04,0.06 C122.7,186.31,121.1,181.67,122.48,178.24L122.48,178.24z"/></g><g id="change1_8"><path fill="#010202" d="M124.35,175.21c0.38,3.78,1.58,6.92,3.05,10.28C125,182.79,123.59,178.65,124.35,175.21L124.35,175.21z"/></g><g id="change1_15"><path fill="#010202" d="M127.56,175.78c-0.11,1.95,0.08,3.76,1.06,5.44c0.25,0.56,1.1,1.47,1.08,1.71 C127.28,181.63,126.15,178.02,127.56,175.78L127.56,175.78z"/></g><g id="change1_85"><path fill="#010202" d="M145.49,192.96c-1.37,1.82-2.94,3.91-4.65,5.24C141.81,196.14,143.51,193.91,145.49,192.96L145.49,192.96z"/></g><g id="change1_7"><path fill="#010202" d="M146.3,195.1c-1.48,1.07-2.47,2.19-3.32,3.81c0,0-0.07,0-0.07,0c-0.01-0.94,0.31-1.88,0.93-2.6 c0.63-0.71,1.52-1.16,2.45-1.28L146.3,195.1L146.3,195.1z"/></g><g id="change1_120"><path fill="#010202" d="M147.15,197.11c-1.77,0.97-2.15,2.11-2.65,3.86c0,0-0.07,0.02-0.07,0.02c-0.23-0.89-0.16-1.9,0.33-2.71 c0.5-0.82,1.46-1.27,2.39-1.24C147.15,197.03,147.15,197.11,147.15,197.11L147.15,197.11z"/></g><g id="change1_66"><path fill="#010202" d="M148.54,197.74c-1.6,1.26-2.48,2.81-2.66,4.84c0,0-0.07,0.03-0.07,0.03c-0.36-1-0.32-2.15,0.2-3.1 c0.52-0.95,1.48-1.6,2.51-1.84L148.54,197.74L148.54,197.74z"/></g><g><g id="change1_98"><path fill="#010202" d="M165.52,185.41c1.55,2.5,0.37,6.32-2.3,7.55c0,0-0.05-0.05-0.05-0.05 C165.21,191,165.85,187.96,165.52,185.41L165.52,185.41z"/></g><g id="change1_77"><path fill="#010202" d="M163.48,183.01c0.97,3.37,0.55,9.07-4.12,8.86c0,0-0.02-0.07-0.02-0.07 C163.77,190.9,163.07,186.29,163.48,183.01L163.48,183.01z"/></g><g id="change1_76"><path fill="#010202" d="M161.4,180.38c1.2,3.42-0.2,7.63-3.12,9.74c0,0-0.06-0.05-0.06-0.05 C160.47,187.38,161.42,183.69,161.4,180.38L161.4,180.38z"/></g><g id="change1_24"><path fill="#010202" d="M159.59,178.18c0.94,3.38-0.62,7.83-3.66,9.51C158.29,185.1,159.37,181.47,159.59,178.18L159.59,178.18z"/></g><g id="change1_18"><path fill="#010202" d="M157.49,174.88c2.1,3.45,0.38,8.76-3.53,10.11c0,0-0.04-0.06-0.04-0.06 C157.29,182.72,158.32,178.52,157.49,174.88L157.49,174.88z"/></g><g id="change1_4"><path fill="#010202" d="M155.63,171.86c1.42,3.55,0.02,8.13-3.12,10.29c0,0-0.06-0.05-0.06-0.05 C154.93,179.33,155.85,175.36,155.63,171.86L155.63,171.86z"/></g><g id="change1_112"><path fill="#010202" d="M152.41,172.41c2.18,2.22,0.83,6.61-2.21,7.18c0,0-0.04-0.06-0.04-0.06c1.15-0.71,2.04-1.84,2.41-3.13 c0.4-1.28,0.3-2.71-0.23-3.95L152.41,172.41L152.41,172.41z"/></g></g><g id="change1_12"><path fill="#010202" d="M135.48,134.48c-2.65-1.28-3.71-5.14-2.11-7.6c0,0,0.07,0.02,0.07,0.02 C132.74,129.6,133.83,132.51,135.48,134.48L135.48,134.48z"/></g><g id="change1_51"><path fill="#010202" d="M138.49,135.41c-2.63-2.32-5.33-7.36-1.28-9.69c0,0,0.05,0.05,0.05,0.05 C134.01,128.91,137.07,132.43,138.49,135.41L138.49,135.41z"/></g><g id="change1_113"><path fill="#010202" d="M141.66,136.51c-2.79-2.17-4.06-6.77-2.52-9.88C138.68,130.11,139.86,133.73,141.66,136.51L141.66,136.51z"/></g><g id="change1_14"><path fill="#010202" d="M144.37,137.4c-2.61-2.35-3.68-6.94-2.02-9.99C141.74,130.86,142.79,134.5,144.37,137.4L144.37,137.4z"/></g><g id="change1_63"><path fill="#010202" d="M147.91,139.05c-3.63-1.78-5.02-7.19-2.46-10.42c0,0,0.07,0.03,0.07,0.03 C143.87,132.33,145.25,136.43,147.91,139.05L147.91,139.05z"/></g><g id="change1_41"><path fill="#010202" d="M151.1,140.6c-3.1-2.23-4.38-6.84-2.89-10.36c0,0,0.07,0.01,0.07,0.01 C147.68,133.93,149.03,137.76,151.1,140.6L151.1,140.6z"/></g><g id="change1_13"><path fill="#010202" d="M153.51,138.41c-3.03-0.7-4.25-5.13-1.99-7.24c0,0,0.07,0.03,0.07,0.03c-1.24,2.47-0.32,5.63,1.97,7.14 C153.55,138.34,153.51,138.41,153.51,138.41L153.51,138.41z"/></g><g id="change1_38"><path fill="#010202" d="M126.78,150.42c5.41-2.83,10.13-6.75,13.91-11.54c0,0,0.06,0.04,0.06,0.04 C137.71,144.18,132.52,148.71,126.78,150.42L126.78,150.42z"/></g><g id="change1_55"><path fill="#010202" d="M133.08,149.83c1.31-2.22,4.17-4.05,6.71-3.87C137.37,146.85,135.07,148.48,133.08,149.83L133.08,149.83z"/></g><g id="change1_10"><path fill="#010202" d="M136.8,149.35c2.66-0.41,4.43-1.32,6.69-2.56C142.11,148.83,139.06,150.13,136.8,149.35L136.8,149.35z"/></g><g id="change1_16"><path fill="#010202" d="M161.6,156.51c1.86,2.22,1.28,6.15-1.26,7.63c0,0-0.06-0.05-0.06-0.05 C162.11,162.02,162.26,158.94,161.6,156.51L161.6,156.51z"/></g><g id="change1_107"><path fill="#010202" d="M164.7,159.5c1.51,2.59-0.15,6.3-2.93,7.18c0,0-0.05-0.06-0.05-0.06C163.96,164.94,164.96,162.09,164.7,159.5 L164.7,159.5z"/></g><g id="change1_92"><path fill="#010202" d="M166.84,162c1.43,2.65-0.54,6.22-3.32,6.93c0,0-0.04-0.06-0.04-0.06C165.78,167.3,167.02,164.63,166.84,162 L166.84,162z"/></g><g id="change1_103"><path fill="#010202" d="M169.1,165.33c1.85,2.87-1.38,6.51-4.44,5.76c0,0-0.01-0.07-0.01-0.07 C167.73,170.54,169.49,168.3,169.1,165.33L169.1,165.33z"/></g><g id="change1_32"><path fill="#010202" d="M171.72,168.92c0.92,2.74-2.85,4.93-5,3.38c0,0,0.01-0.07,0.01-0.07c2.2,0.41,4.75-0.92,4.92-3.32 C171.65,168.91,171.72,168.92,171.72,168.92L171.72,168.92z"/></g><g id="change1_123"><path fill="#010202" d="M173.27,170.94c0.93,2.3-2.01,4.81-4.14,3.55c0,0,0.01-0.07,0.01-0.07c2.02,0.17,3.91-1.45,4.06-3.48 C173.2,170.93,173.27,170.94,173.27,170.94L173.27,170.94z"/></g><g id="change1_56"><path fill="#010202" d="M110.6,140.22c1.06,0.22,1.88,0.73,2.63,1.32c0.62,0.56,1.64,1.46,1.78,2.37c-1.13-0.88-3.37-2.7-4.46-3.64 C110.55,140.28,110.6,140.22,110.6,140.22L110.6,140.22z"/></g><g id="change1_26"><path fill="#010202" d="M112.5,138.23c0.84,0.62,1.42,1.17,2.06,1.69c0.43,0.45,1.69,1.23,2.01,1.81 C114.84,141.34,112.9,139.89,112.5,138.23L112.5,138.23z"/></g><g id="change1_58"><path fill="#010202" d="M114.5,136.14c0.62,2.04,1.51,2.53,3.25,3.64c0,0,0,0.07,0,0.07c-0.94-0.04-1.91-0.37-2.6-1.06 c-0.69-0.69-0.94-1.73-0.71-2.67C114.43,136.13,114.5,136.14,114.5,136.14L114.5,136.14z"/></g><g id="change1_30"><path fill="#010202" d="M117.67,126.87c1.61-2.16,5.12,0.41,3.5,2.6c0,0-0.07-0.02-0.07-0.02c0.41-1.9-1.7-3.45-3.39-2.52 C117.71,126.93,117.67,126.87,117.67,126.87L117.67,126.87z"/></g><g id="change1_54"><path fill="#010202" d="M119.57,124.08c1.7-1.67,4.96-0.06,4.83,2.25c0,0-0.07,0.03-0.07,0.03c-0.8-1.76-2.87-2.79-4.74-2.2 C119.59,124.16,119.57,124.08,119.57,124.08L119.57,124.08z"/></g><g id="change1_61"><path fill="#010202" d="M109.05,124.68c0.3,2.39,0.35,5.13-0.41,7.34C108.38,129.65,108.31,126.84,109.05,124.68L109.05,124.68z"/></g><g id="change1_72"><path fill="#010202" d="M112.39,123.69c-0.17,2.38-0.62,5.08-1.74,7.1C110.79,128.42,111.24,125.65,112.39,123.69L112.39,123.69z"/></g><g id="change1_25"><path fill="#010202" d="M166.02,130.36c2,3.59,2.75,8.36,1.45,12.2C167.73,138.47,166.94,134.18,166.02,130.36L166.02,130.36z"/></g><g id="change1_19"><path fill="#010202" d="M169.42,132.01c0.88,4.09,0.93,8.66-0.43,12.54c0,0,0.31-6.26,0.31-6.26l0.04-6.27 C169.35,132.01,169.42,132.01,169.42,132.01L169.42,132.01z"/></g><g id="change1_71"><path fill="#010202" d="M162.97,127.67c1.51,3.99,1.76,8.89,0.16,12.78C163.72,136.24,163.4,131.73,162.97,127.67L162.97,127.67z"/></g><g id="change1_121"><path fill="#010202" d="M159.34,126.5c1.21,3.77,1.29,8.22-0.07,11.84c0.1-1.75,0.27-4.19,0.23-5.92 C159.59,130.49,159.28,128.29,159.34,126.5L159.34,126.5z"/></g><g id="change1_44"><path fill="#010202" d="M153.24,125.07c4.07,2.69,5.2,9.01,2.35,12.93c0,0-0.07-0.03-0.07-0.03 C157.49,133.66,156.24,128.42,153.24,125.07L153.24,125.07z"/></g><g id="change1_81"><path fill="#010202" d="M170.47,118.98c2.39,1.47,3.47,5.29,2.04,7.64C172.86,123.91,171.87,121.09,170.47,118.98L170.47,118.98z"/></g><g id="change1_3"><path fill="#010202" d="M173.73,118.8c1.85,1.44,2.46,4.71,1.01,6.52C175.17,123.11,174.52,120.72,173.73,118.8L173.73,118.8z"/></g><g id="change1_21"><path fill="#010202" d="M176.8,119.68c2.13,1.76,2.7,5.16,1.29,7.53c-0.01-1.2,0.27-2.31-0.07-3.86 C177.8,121.65,177.14,120.75,176.8,119.68L176.8,119.68z"/></g><g id="change1_108"><path fill="#010202" d="M179.73,120.16c1.48,1.67,2.11,4.56,0.87,6.46c0.13-2.16-0.28-4.38-0.94-6.43 C179.66,120.18,179.73,120.16,179.73,120.16L179.73,120.16z"/></g></g></svg>